<svg xmlns="http://www.w3.org/2000/svg" viewBox="0 0 24 24" fill="none"
     stroke="currentColor" stroke-width="1.8" stroke-linecap="round" stroke-linejoin="round">
  <path d="M12 7.4c-1.3-1.55-3.42-2.23-5.4-1.81-2.58.55-4.4 2.73-4.4 5.52C2.2 15.42 6.52 19 12 19s9.8-3.58 9.8-7.85c0-2.79-1.82-4.97-4.4-5.52-1.98-.42-4.1.26-5.4 1.81Z"/>
  <path d="M12 7.4V4.15"/>
  <path d="M11.95 6.35c-1.8-2.16-4.4-2.78-6.38-1.5"/>
  <path d="M12.05 6.35c1.8-2.16 4.4-2.78 6.38-1.5"/>
  <path d="M12 6.5c0-1.5-1.08-2.73-2.48-2.95"/>
  <path d="M12 6.5c0-1.5 1.08-2.73 2.48-2.95"/>
</svg>
